<svg xmlns="http://www.w3.org/2000/svg" version="1.1" xmlns:xlink="http://www.w3.org/1999/xlink" xmlns:svgjs="http://svgjs.dev/svgjs" width="1500" height="1500" viewBox="0 0 1500 1500"><rect width="1500" height="1500" fill="#ffffff"></rect><g transform="matrix(0.6666666666666666,0,0,0.6666666666666666,249.39393939393938,568.7409589899265)"><svg viewBox="0 0 396 144" data-background-color="#ffffff" preserveAspectRatio="xMidYMid meet" height="545" width="1500" xmlns="http://www.w3.org/2000/svg" xmlns:xlink="http://www.w3.org/1999/xlink"><g id="tight-bounds" transform="matrix(1,0,0,1,0.2400000000000091,-0.1615543886680939)"><svg viewBox="0 0 395.52 144.3231087773362" height="144.3231087773362" width="395.52"><g><svg viewBox="0 0 610.3533499918832 222.71463623455227" height="144.3231087773362" width="395.52"><g><rect width="3.618771184082097" height="96.69231674437869" x="201.74135581282178" y="63.01115974508679" fill="#000000" opacity="1" stroke-width="0" stroke="transparent" fill-opacity="1" class="rect-qz-0" data-fill-palette-color="primary" rx="1%" id="qz-0" data-palette-color="#203066"></rect></g><g transform="matrix(1,0,0,1,214.8333499918832,71.06885280711835)"><svg viewBox="0 0 395.52 80.57693062031558" height="80.57693062031558" width="395.52"><g id="textblocktransform"><svg viewBox="0 0 395.52 80.57693062031558" height="80.57693062031558" width="395.52" id="textblock"><g><svg viewBox="0 0 395.52 40.12785287356322" height="40.12785287356322" width="395.52"><g transform="matrix(1,0,0,1,0,0)"><svg width="395.52" viewBox="0.4 -32.6 326.22 33.1" height="40.12785287356322" data-palette-color="#203066"><path d="M19.35-32.2L29.2 0 22.3 0 21.5-4.2 20.65-7.2 14.35-7.35 8.8-7.2 7.95-4.55 7.1 0 0.4 0 11.3-32.2 19.35-32.2ZM14.85-12.35L19.2-12.45 15.4-25.85 14.95-25.85 10.55-12.45 14.85-12.35ZM46.25-32.25Q51.3-32.25 54.02-29.7 56.75-27.15 56.75-22.4L56.75-22.4Q56.75-18.75 55.15-16.03 53.55-13.3 50.57-11.8 47.6-10.3 43.6-10.3L43.6-10.3 40.4-10.3 40.4-10.2 40.7 0 33.9 0 34.25-9.6 33.9-32.2 46.25-32.25ZM45.1-15.25Q49.7-16.55 49.7-21.8L49.7-21.8Q49.7-24.5 48.32-25.83 46.95-27.15 44.1-27.25L44.1-27.25 40.7-27.05 40.5-15.45 45.1-15.25ZM88.55-32.3L88.15-9.95 88.4 0 81.09 0 67.95-21.8 67.55-21.8 67.5-11.1 67.7 0 61.55 0 61.9-9.5 61.6-32.2 68.84-32.2 82-10.4 82.45-10.4 82.3-31.9 88.55-32.3ZM111.74-32.2L121.59 0 114.69 0 113.89-4.2 113.04-7.2 106.74-7.35 101.19-7.2 100.34-4.55 99.49 0 92.79 0 103.69-32.2 111.74-32.2ZM107.24-12.35L111.59-12.45 107.79-25.85 107.34-25.85 102.94-12.45 107.24-12.35ZM144.19-32.6Q148.29-32.6 152.34-30.95L152.34-30.95 151.24-25.1 150.24-24.7Q148.54-25.9 146.71-26.6 144.89-27.3 143.39-27.3L143.39-27.3Q141.39-27.3 140.19-26.23 138.99-25.15 138.99-23.75L138.99-23.75Q138.99-22.3 140.31-21.3 141.64-20.3 144.49-18.95L144.49-18.95Q147.24-17.7 148.96-16.63 150.69-15.55 151.91-13.8 153.14-12.05 153.14-9.5L153.14-9.5Q153.14-6.75 151.64-4.48 150.14-2.2 147.39-0.88 144.64 0.45 141.04 0.45L141.04 0.45Q136.29 0.45 131.49-1.6L131.49-1.6 132.44-7.9 133.19-8.3Q135.19-6.55 137.56-5.63 139.94-4.7 141.79-4.7L141.79-4.7Q143.99-4.7 145.21-5.78 146.44-6.85 146.44-8.35L146.44-8.35Q146.44-9.95 145.11-10.95 143.79-11.95 140.84-13.35L140.84-13.35Q138.14-14.55 136.44-15.6 134.74-16.65 133.54-18.4 132.34-20.15 132.34-22.65L132.34-22.65Q132.34-25.45 133.84-27.73 135.34-30 138.04-31.3 140.74-32.6 144.19-32.6L144.19-32.6ZM171.04-5.3L178.99-5.6 179.39-5.05 178.94 0 158.74 0 159.09-9.6 158.74-32.2 179.14-32.2 179.54-31.65 179.04-26.6 171.34-26.85 165.54-26.8 165.39-19.05 170.94-18.95 176.19-19.1 176.59-18.6 176.14-13.55 170.44-13.7 165.29-13.65 165.24-10.2 165.39-5.35 171.04-5.3ZM201.08-12.8Q204.98-6.6 208.83-1.6L208.83-1.6 208.73-0.85Q205.48 0.3 202.08 0.5L202.08 0.5 201.38-0.05Q197.78-6.25 195.53-10.85L195.53-10.85 190.68-10.85 190.68-10.2 190.98 0 184.18 0 184.53-9.6 184.18-32.2 196.53-32.25Q201.58-32.25 204.33-29.78 207.08-27.3 207.08-22.7L207.08-22.7Q207.08-19.6 205.51-17.03 203.93-14.45 201.08-12.8L201.08-12.8ZM190.98-27.05L190.78-16.1 195.73-15.9Q199.98-17.35 199.98-22.05L199.98-22.05Q199.98-24.6 198.61-25.88 197.23-27.15 194.38-27.25L194.38-27.25 190.98-27.05ZM237.98-32.2L227.13 0 219.03 0 209.18-32.2 216.08-32.2 216.88-27.95 222.98-6.3 223.43-6.3 230.43-27.6 231.28-32.2 237.98-32.2ZM248.63-32.2L248.23-10.2 248.53 0 241.73 0 242.08-9.6 241.73-32.2 248.63-32.2ZM268.93-32.6Q273.63-32.6 277.38-30.65L277.38-30.65 276.18-25 275.63-24.75Q274.13-25.8 272.33-26.4 270.53-27 268.63-27L268.63-27Q260.68-27 260.68-16.55L260.68-16.55Q260.68-10.9 262.75-8.08 264.83-5.25 268.83-5.25L268.83-5.25Q270.68-5.25 272.65-5.83 274.63-6.4 276.23-7.4L276.23-7.4 276.83-7.05 276.28-1.3Q272.48 0.45 268.28 0.45L268.28 0.45Q261.08 0.45 257.3-3.75 253.53-7.95 253.53-15.8L253.53-15.8Q253.53-23.8 257.55-28.2 261.58-32.6 268.93-32.6L268.93-32.6ZM294.17-5.3L302.12-5.6 302.52-5.05 302.07 0 281.87 0 282.22-9.6 281.87-32.2 302.27-32.2 302.67-31.65 302.17-26.6 294.47-26.85 288.67-26.8 288.52-19.05 294.07-18.95 299.32-19.1 299.72-18.6 299.27-13.55 293.57-13.7 288.42-13.65 288.37-10.2 288.52-5.35 294.17-5.3ZM317.67-32.6Q321.77-32.6 325.82-30.95L325.82-30.95 324.72-25.1 323.72-24.7Q322.02-25.9 320.2-26.6 318.37-27.3 316.87-27.3L316.87-27.3Q314.87-27.3 313.67-26.23 312.47-25.15 312.47-23.75L312.47-23.75Q312.47-22.3 313.8-21.3 315.12-20.3 317.97-18.95L317.97-18.95Q320.72-17.7 322.45-16.63 324.17-15.55 325.4-13.8 326.62-12.05 326.62-9.5L326.62-9.5Q326.62-6.75 325.12-4.48 323.62-2.2 320.87-0.88 318.12 0.45 314.52 0.45L314.52 0.45Q309.77 0.45 304.97-1.6L304.97-1.6 305.92-7.9 306.67-8.3Q308.67-6.55 311.05-5.63 313.42-4.7 315.27-4.7L315.27-4.7Q317.47-4.7 318.7-5.78 319.92-6.85 319.92-8.35L319.92-8.35Q319.92-9.95 318.6-10.95 317.27-11.95 314.32-13.35L314.32-13.35Q311.62-14.55 309.92-15.6 308.22-16.65 307.02-18.4 305.82-20.15 305.82-22.65L305.82-22.65Q305.82-25.45 307.32-27.73 308.82-30 311.52-31.3 314.22-32.6 317.67-32.6L317.67-32.6Z" opacity="1" transform="matrix(1,0,0,1,0,0)" fill="#000000" class="wordmark-text-0" data-fill-palette-color="primary" id="text-0"></path></svg></g></svg></g><g transform="matrix(1,0,0,1,35.5968,49.60107586854253)"><svg viewBox="0 0 324.3264 30.97585475177305" height="30.97585475177305" width="324.3264"><g transform="matrix(1,0,0,1,0,0)"><svg width="324.3264" viewBox="0.35 -39.65 528.6899999999999 50.5" height="30.97585475177305" data-palette-color="#ff008a"><path d="M11.75-35.25Q14.75-35.25 17.05-34.2 19.35-33.15 21.3-31.05L21.3-31.05 18.35-27.65Q16.8-29.05 15.33-29.75 13.85-30.45 12.2-30.45L12.2-30.45Q10.3-30.45 9.2-29.28 8.1-28.1 8.1-26.2L8.1-26.2Q8.1-24.3 9.25-23.1 10.4-21.9 13.75-20.6L13.75-20.6Q18.05-18.85 20.08-16.5 22.1-14.15 22.1-9.85L22.1-9.85Q22.1-6.9 20.75-4.48 19.4-2.05 16.88-0.65 14.35 0.75 11 0.75L11 0.75Q7.55 0.75 5-0.48 2.45-1.7 0.35-3.95L0.35-3.95 3.55-7.45Q5.35-5.85 7-5 8.65-4.15 10.6-4.15L10.6-4.15Q12.9-4.15 14.18-5.58 15.45-7 15.45-9.45L15.45-9.45Q15.45-11.6 14.33-12.98 13.2-14.35 10.15-15.5L10.15-15.5Q5.55-17.35 3.53-19.75 1.5-22.15 1.5-25.75L1.5-25.75Q1.5-28.5 2.83-30.65 4.15-32.8 6.5-34.02 8.85-35.25 11.75-35.25L11.75-35.25ZM44.95-13.85Q44.95-13.4 44.8-11.3L44.8-11.3 31.15-11.3Q31.35-7.2 32.57-5.58 33.8-3.95 36.05-3.95L36.05-3.95Q37.6-3.95 38.85-4.48 40.1-5 41.55-6.15L41.55-6.15 44.1-2.65Q40.6 0.75 35.7 0.75L35.7 0.75Q30.5 0.75 27.72-2.85 24.95-6.45 24.95-13L24.95-13Q24.95-19.55 27.6-23.35 30.25-27.15 35.1-27.15L35.1-27.15Q39.75-27.15 42.35-23.78 44.95-20.4 44.95-13.85L44.95-13.85ZM38.95-15.3L38.95-15.65Q38.95-19.4 38.05-21.13 37.15-22.85 35.15-22.85L35.15-22.85Q33.3-22.85 32.32-21.18 31.35-19.5 31.15-15.3L31.15-15.3 38.95-15.3ZM60.9-27.1Q62.05-27.1 62.95-26.75L62.95-26.75 61.95-20.85Q60.95-21.1 60.1-21.1L60.1-21.1Q58.2-21.1 57.1-19.45 56-17.8 55.4-14.55L55.4-14.55 55.4 0 49.25 0 49.25-26.45 54.6-26.45 55.05-21.85Q56.9-27.1 60.9-27.1L60.9-27.1ZM78.19-26.45L84.24-26.45 77.34 0 70.09 0 62.99-26.45 69.34-26.45 73.69-4.95 78.19-26.45ZM87.14-26.45L93.29-26.45 93.29 0 87.14 0 87.14-26.45ZM90.19-39.65Q91.84-39.65 92.87-38.6 93.89-37.55 93.89-35.9L93.89-35.9Q93.89-34.3 92.87-33.25 91.84-32.2 90.19-32.2L90.19-32.2Q88.54-32.2 87.52-33.25 86.49-34.3 86.49-35.9L86.49-35.9Q86.49-37.55 87.52-38.6 88.54-39.65 90.19-39.65L90.19-39.65ZM108.49-27.15Q110.64-27.15 112.39-26.43 114.14-25.7 115.74-24.15L115.74-24.15 113.09-20.65Q111.99-21.55 111.01-21.98 110.04-22.4 108.89-22.4L108.89-22.4Q106.64-22.4 105.49-20.28 104.34-18.15 104.34-13.1L104.34-13.1Q104.34-8.2 105.51-6.2 106.69-4.2 108.89-4.2L108.89-4.2Q109.99-4.2 110.89-4.6 111.79-5 112.99-5.85L112.99-5.85 115.74-2.3Q112.54 0.75 108.59 0.75L108.59 0.75Q103.49 0.75 100.66-2.73 97.84-6.2 97.84-13L97.84-13Q97.84-17.4 99.14-20.6 100.44-23.8 102.86-25.48 105.29-27.15 108.49-27.15L108.49-27.15ZM137.64-13.85Q137.64-13.4 137.49-11.3L137.49-11.3 123.84-11.3Q124.04-7.2 125.26-5.58 126.49-3.95 128.74-3.95L128.74-3.95Q130.29-3.95 131.54-4.48 132.79-5 134.24-6.15L134.24-6.15 136.79-2.65Q133.29 0.75 128.39 0.75L128.39 0.75Q123.19 0.75 120.41-2.85 117.64-6.45 117.64-13L117.64-13Q117.64-19.55 120.29-23.35 122.94-27.15 127.79-27.15L127.79-27.15Q132.44-27.15 135.04-23.78 137.64-20.4 137.64-13.85L137.64-13.85ZM131.64-15.3L131.64-15.65Q131.64-19.4 130.74-21.13 129.84-22.85 127.84-22.85L127.84-22.85Q125.99-22.85 125.01-21.18 124.04-19.5 123.84-15.3L123.84-15.3 131.64-15.3ZM149.28-27.15Q153.98-27.15 157.23-24.05L157.23-24.05 154.88-20.7Q153.48-21.7 152.23-22.2 150.98-22.7 149.68-22.7L149.68-22.7Q148.23-22.7 147.41-21.93 146.58-21.15 146.58-19.8L146.58-19.8Q146.58-18.45 147.51-17.63 148.43-16.8 151.23-15.7L151.23-15.7Q154.68-14.35 156.33-12.5 157.98-10.65 157.98-7.55L157.98-7.55Q157.98-3.7 155.28-1.48 152.58 0.75 148.43 0.75L148.43 0.75Q145.73 0.75 143.46-0.23 141.18-1.2 139.48-2.95L139.48-2.95 142.48-6.25Q145.28-3.8 148.18-3.8L148.18-3.8Q149.83-3.8 150.78-4.67 151.73-5.55 151.73-7.1L151.73-7.1Q151.73-8.25 151.33-8.97 150.93-9.7 149.93-10.33 148.93-10.95 146.93-11.7L146.93-11.7Q143.48-13.05 142.01-14.85 140.53-16.65 140.53-19.45L140.53-19.45Q140.53-22.8 142.91-24.98 145.28-27.15 149.28-27.15L149.28-27.15ZM193.78 0L187.33 0 185.63-8.1 176.73-8.1 175.08 0 168.73 0 177.43-34.55 185.13-34.55 193.78 0ZM181.18-29.7L177.73-12.9 184.68-12.9 181.18-29.7ZM207.68-5L209.83-1.2Q207.38 0.75 204.08 0.75L204.08 0.75Q200.63 0.75 198.83-1.23 197.03-3.2 197.03-6.6L197.03-6.6 197.03-22 193.93-22 193.93-26.45 197.03-26.45 197.03-32.3 203.18-33.05 203.18-26.45 208.18-26.45 207.58-22 203.18-22 203.18-6.6Q203.18-4.2 205.23-4.2L205.23-4.2Q205.88-4.2 206.38-4.38 206.88-4.55 207.68-5L207.68-5ZM237.22-34.55L243.72-34.55 234.62-13.15 234.62 0 228.22 0 228.22-13.1 219.12-34.55 225.87-34.55 231.52-18.3 237.22-34.55ZM255.72-27.15Q260.72-27.15 263.49-23.65 266.27-20.15 266.27-13.25L266.27-13.25Q266.27-6.65 263.47-2.95 260.67 0.75 255.72 0.75L255.72 0.75Q250.77 0.75 247.97-2.88 245.17-6.5 245.17-13.25L245.17-13.25Q245.17-19.95 247.97-23.55 250.77-27.15 255.72-27.15L255.72-27.15ZM255.72-22.5Q253.57-22.5 252.57-20.38 251.57-18.25 251.57-13.25L251.57-13.25Q251.57-8.2 252.57-6.08 253.57-3.95 255.72-3.95L255.72-3.95Q257.87-3.95 258.87-6.08 259.87-8.2 259.87-13.25L259.87-13.25Q259.87-18.3 258.87-20.4 257.87-22.5 255.72-22.5L255.72-22.5ZM288.96-26.45L288.96 0 283.61 0 283.31-3.35Q282.06-1.3 280.51-0.28 278.96 0.75 276.91 0.75L276.91 0.75Q274.01 0.75 272.34-1.3 270.66-3.35 270.66-6.65L270.66-6.65 270.66-26.45 276.81-26.45 276.81-7Q276.81-3.9 278.91-3.9L278.91-3.9Q280.11-3.9 281.06-4.83 282.01-5.75 282.81-7.45L282.81-7.45 282.81-26.45 288.96-26.45ZM306.31-27.1Q307.46-27.1 308.36-26.75L308.36-26.75 307.36-20.85Q306.36-21.1 305.51-21.1L305.51-21.1Q303.61-21.1 302.51-19.45 301.41-17.8 300.81-14.55L300.81-14.55 300.81 0 294.66 0 294.66-26.45 300.01-26.45 300.46-21.85Q302.31-27.1 306.31-27.1L306.31-27.1ZM328.91-34.55Q333.26-34.55 336.43-33.23 339.61-31.9 341.58-28.13 343.56-24.35 343.56-17.45L343.56-17.45Q343.56-7.7 339.68-3.85 335.81 0 329.56 0L329.56 0 321.21 0 321.21-34.55 328.91-34.55ZM329.86-29.8L327.56-29.8 327.56-4.75 329.91-4.75Q332.16-4.75 333.68-5.8 335.21-6.85 336.08-9.65 336.96-12.45 336.96-17.45L336.96-17.45Q336.96-22.55 336.03-25.25 335.11-27.95 333.58-28.88 332.06-29.8 329.86-29.8L329.86-29.8ZM357.56-27.15Q362.56-27.15 365.33-23.65 368.11-20.15 368.11-13.25L368.11-13.25Q368.11-6.65 365.31-2.95 362.51 0.75 357.56 0.75L357.56 0.75Q352.61 0.75 349.81-2.88 347.01-6.5 347.01-13.25L347.01-13.25Q347.01-19.95 349.81-23.55 352.61-27.15 357.56-27.15L357.56-27.15ZM357.56-22.5Q355.41-22.5 354.41-20.38 353.41-18.25 353.41-13.25L353.41-13.25Q353.41-8.2 354.41-6.08 355.41-3.95 357.56-3.95L357.56-3.95Q359.71-3.95 360.71-6.08 361.71-8.2 361.71-13.25L361.71-13.25Q361.71-18.3 360.71-20.4 359.71-22.5 357.56-22.5L357.56-22.5ZM382.05-27.15Q387.05-27.15 389.83-23.65 392.6-20.15 392.6-13.25L392.6-13.25Q392.6-6.65 389.8-2.95 387 0.75 382.05 0.75L382.05 0.75Q377.1 0.75 374.3-2.88 371.5-6.5 371.5-13.25L371.5-13.25Q371.5-19.95 374.3-23.55 377.1-27.15 382.05-27.15L382.05-27.15ZM382.05-22.5Q379.9-22.5 378.9-20.38 377.9-18.25 377.9-13.25L377.9-13.25Q377.9-8.2 378.9-6.08 379.9-3.95 382.05-3.95L382.05-3.95Q384.2-3.95 385.2-6.08 386.2-8.2 386.2-13.25L386.2-13.25Q386.2-18.3 385.2-20.4 384.2-22.5 382.05-22.5L382.05-22.5ZM408.8-27.1Q409.95-27.1 410.85-26.75L410.85-26.75 409.85-20.85Q408.85-21.1 408-21.1L408-21.1Q406.1-21.1 405-19.45 403.9-17.8 403.3-14.55L403.3-14.55 403.3 0 397.15 0 397.15-26.45 402.5-26.45 402.95-21.85Q404.8-27.1 408.8-27.1L408.8-27.1ZM432.45-35.25Q435.45-35.25 437.75-34.2 440.05-33.15 442-31.05L442-31.05 439.05-27.65Q437.5-29.05 436.02-29.75 434.55-30.45 432.9-30.45L432.9-30.45Q431-30.45 429.9-29.28 428.8-28.1 428.8-26.2L428.8-26.2Q428.8-24.3 429.95-23.1 431.1-21.9 434.45-20.6L434.45-20.6Q438.75-18.85 440.77-16.5 442.8-14.15 442.8-9.85L442.8-9.85Q442.8-6.9 441.45-4.48 440.1-2.05 437.57-0.65 435.05 0.75 431.7 0.75L431.7 0.75Q428.25 0.75 425.7-0.48 423.15-1.7 421.05-3.95L421.05-3.95 424.25-7.45Q426.05-5.85 427.7-5 429.35-4.15 431.3-4.15L431.3-4.15Q433.6-4.15 434.87-5.58 436.15-7 436.15-9.45L436.15-9.45Q436.15-11.6 435.02-12.98 433.9-14.35 430.85-15.5L430.85-15.5Q426.25-17.35 424.22-19.75 422.2-22.15 422.2-25.75L422.2-25.75Q422.2-28.5 423.52-30.65 424.85-32.8 427.2-34.02 429.55-35.25 432.45-35.25L432.45-35.25ZM457.94-5L460.09-1.2Q457.64 0.75 454.34 0.75L454.34 0.75Q450.89 0.75 449.09-1.23 447.29-3.2 447.29-6.6L447.29-6.6 447.29-22 444.19-22 444.19-26.45 447.29-26.45 447.29-32.3 453.44-33.05 453.44-26.45 458.44-26.45 457.84-22 453.44-22 453.44-6.6Q453.44-4.2 455.49-4.2L455.49-4.2Q456.14-4.2 456.64-4.38 457.14-4.55 457.94-5L457.94-5ZM481.49-13.85Q481.49-13.4 481.34-11.3L481.34-11.3 467.69-11.3Q467.89-7.2 469.12-5.58 470.34-3.95 472.59-3.95L472.59-3.95Q474.14-3.95 475.39-4.48 476.64-5 478.09-6.15L478.09-6.15 480.64-2.65Q477.14 0.75 472.24 0.75L472.24 0.75Q467.04 0.75 464.27-2.85 461.49-6.45 461.49-13L461.49-13Q461.49-19.55 464.14-23.35 466.79-27.15 471.64-27.15L471.64-27.15Q476.29-27.15 478.89-23.78 481.49-20.4 481.49-13.85L481.49-13.85ZM475.49-15.3L475.49-15.65Q475.49-19.4 474.59-21.13 473.69-22.85 471.69-22.85L471.69-22.85Q469.84-22.85 468.87-21.18 467.89-19.5 467.69-15.3L467.69-15.3 475.49-15.3ZM504.64-13.85Q504.64-13.4 504.49-11.3L504.49-11.3 490.84-11.3Q491.04-7.2 492.26-5.58 493.49-3.95 495.74-3.95L495.74-3.95Q497.29-3.95 498.54-4.48 499.79-5 501.24-6.15L501.24-6.15 503.79-2.65Q500.29 0.75 495.39 0.75L495.39 0.75Q490.19 0.75 487.41-2.85 484.64-6.45 484.64-13L484.64-13Q484.64-19.55 487.29-23.35 489.94-27.15 494.79-27.15L494.79-27.15Q499.44-27.15 502.04-23.78 504.64-20.4 504.64-13.85L504.64-13.85ZM498.64-15.3L498.64-15.65Q498.64-19.4 497.74-21.13 496.84-22.85 494.84-22.85L494.84-22.85Q492.99-22.85 492.01-21.18 491.04-19.5 490.84-15.3L490.84-15.3 498.64-15.3ZM521.14-27.15Q525.04-27.15 527.04-23.58 529.04-20 529.04-13.3L529.04-13.3Q529.04-6.8 526.76-3.03 524.49 0.75 520.44 0.75L520.44 0.75Q517.24 0.75 515.09-2.1L515.09-2.1 515.09 10.15 508.94 10.85 508.94-26.45 514.39-26.45 514.64-23.25Q515.94-25.25 517.54-26.2 519.14-27.15 521.14-27.15L521.14-27.15ZM518.79-3.95Q520.69-3.95 521.69-6.13 522.69-8.3 522.69-13.25L522.69-13.25Q522.69-18.45 521.84-20.5 520.99-22.55 519.19-22.55L519.19-22.55Q516.89-22.55 515.09-19.25L515.09-19.25 515.09-6.45Q516.69-3.95 518.79-3.95L518.79-3.95Z" opacity="1" transform="matrix(1,0,0,1,0,0)" fill="#000000" class="slogan-text-1" data-fill-palette-color="secondary" id="text-1"></path></svg></g></svg></g></svg></g></svg></g><g><svg viewBox="0 0 192.26813281784246 222.71463623455227" height="222.71463623455227" width="192.26813281784246"><g><svg xmlns="http://www.w3.org/2000/svg" xmlns:xlink="http://www.w3.org/1999/xlink" version="1.1" x="0" y="0" viewBox="9.638 3.247 80.72399999999999 93.507" enable-background="new 0 0 100 100" xml:space="preserve" height="222.71463623455227" width="192.26813281784246" class="icon-icon-0" data-fill-palette-color="accent" id="icon-0"><g fill="#ff008a" data-fill-palette-color="accent"><g fill="#ff008a" data-fill-palette-color="accent"><polygon points="36.703,11.011 9.638,26.636 9.638,38.757 36.703,23.131 63.767,38.757 63.767,26.636   " fill="#000000" data-fill-palette-color="accent"></polygon></g><g fill="#ff008a" data-fill-palette-color="accent"><polygon points="63.298,89.092 36.233,73.467 36.233,61.348 63.298,76.973 90.362,61.348 90.362,73.467   " fill="#000000" data-fill-palette-color="accent"></polygon></g><g fill="#ff008a" data-fill-palette-color="accent"><polygon points="9.638,42.012 36.703,26.386 47.198,32.446 20.134,48.072 20.134,79.324 9.638,73.264   " fill="#000000" data-fill-palette-color="accent"></polygon></g><g fill="#ff008a" data-fill-palette-color="accent"><polygon points="77.083,18.872 50.018,3.247 39.522,9.307 66.586,24.932 66.586,56.184 77.083,50.124   " fill="#000000" data-fill-palette-color="accent"></polygon></g><g fill="#ff008a" data-fill-palette-color="accent"><polygon points="23.01,81.127 23.011,49.876 33.507,43.816 33.507,75.068 60.571,90.693 50.075,96.754   " fill="#000000" data-fill-palette-color="accent"></polygon></g><g fill="#ff008a" data-fill-palette-color="accent"><polygon points="90.362,58.092 90.362,26.84 79.866,20.78 79.866,52.031 52.802,67.658 63.298,73.719   " fill="#000000" data-fill-palette-color="accent"></polygon></g></g></svg></g></svg></g></svg></g><defs></defs></svg><rect width="395.52" height="144.3231087773362" fill="none" stroke="none" visibility="hidden"></rect></g></svg></g></svg>